<svg xmlns="http://www.w3.org/2000/svg" viewBox="0 0 620 280" width="620" height="280">
  <defs>
    <marker id="arrow" markerWidth="8" markerHeight="8" refX="7" refY="4" orient="auto">
      <path d="M0 0 L8 4 L0 8 Z" fill="#333"/>
    </marker>
  </defs>
  <rect width="620" height="280" fill="#fafafa" rx="4"/>
  <text x="310" y="22" text-anchor="middle" font-family="sans-serif" font-size="14" font-weight="bold" fill="#333">Rakamakafo CRM  High-level</text>
  <rect x="260" y="42" width="100" height="44" rx="6" fill="#e3f2fd" stroke="#1976d2" stroke-width="1.5"/>
  <text x="310" y="68" text-anchor="middle" font-family="sans-serif" font-size="12" fill="#1565c0">Browser / Client</text>
  <rect x="255" y="108" width="110" height="40" rx="6" fill="#fff3e0" stroke="#e65100" stroke-width="1.5"/>
  <text x="310" y="133" text-anchor="middle" font-family="sans-serif" font-size="11" fill="#bf360c">Ingress (dev0pz.com)</text>
  <rect x="80" y="168" width="100" height="44" rx="6" fill="#e8f5e9" stroke="#2e7d32" stroke-width="1.5"/>
  <text x="130" y="194" text-anchor="middle" font-family="sans-serif" font-size="11" fill="#1b5e20">frontapp</text>
  <rect x="260" y="168" width="100" height="44" rx="6" fill="#fce4ec" stroke="#c2185b" stroke-width="1.5"/>
  <text x="310" y="194" text-anchor="middle" font-family="sans-serif" font-size="11" fill="#880e4f">backapp (API)</text>
  <rect x="440" y="168" width="100" height="44" rx="6" fill="#e8eaf6" stroke="#3949ab" stroke-width="1.5"/>
  <text x="490" y="194" text-anchor="middle" font-family="sans-serif" font-size="11" fill="#283593">PostgreSQL</text>
  <rect x="260" y="232" width="100" height="36" rx="6" fill="#f5f5f5" stroke="#616161" stroke-width="1"/>
  <text x="310" y="253" text-anchor="middle" font-family="sans-serif" font-size="10" fill="#424242">Email / Telegram</text>
  <path d="M310 86 L310 108" stroke="#333" stroke-width="1.5" fill="none" marker-end="url(#arrow)"/>
  <path d="M310 148 L200 168" stroke="#333" stroke-width="1.5" fill="none" marker-end="url(#arrow)"/>
  <path d="M310 148 L310 168" stroke="#333" stroke-width="1.5" fill="none" marker-end="url(#arrow)"/>
  <path d="M360 190 L440 190" stroke="#333" stroke-width="1.5" fill="none" marker-end="url(#arrow)"/>
  <path d="M310 212 L310 232" stroke="#333" stroke-width="1.5" fill="none" marker-end="url(#arrow)"/>
</svg>
